<?xml version="1.0" encoding="UTF-8" standalone="no"?>
<svg
   xmlns:dc="http://purl.org/dc/elements/1.1/"
   xmlns:cc="http://creativecommons.org/ns#"
   xmlns:rdf="http://www.w3.org/1999/02/22-rdf-syntax-ns#"
   xmlns:svg="http://www.w3.org/2000/svg"
   xmlns="http://www.w3.org/2000/svg"
   xmlns:sodipodi="http://sodipodi.sourceforge.net/DTD/sodipodi-0.dtd"
   xmlns:inkscape="http://www.inkscape.org/namespaces/inkscape"
   id="Layer_1"
   data-name="Layer 1"
   viewBox="0 0 128 128"
   version="1.1"
   sodipodi:docname="01n.svg"
   inkscape:version="0.92.3 (2405546, 2018-03-11)">
  <metadata
     id="metadata13">
    <rdf:RDF>
      <cc:Work
         rdf:about="">
        <dc:format>image/svg+xml</dc:format>
        <dc:type
           rdf:resource="http://purl.org/dc/dcmitype/StillImage" />
      </cc:Work>
    </rdf:RDF>
  </metadata>
  <sodipodi:namedview
     pagecolor="#ffffff"
     bordercolor="#666666"
     borderopacity="1"
     objecttolerance="10"
     gridtolerance="10"
     guidetolerance="10"
     inkscape:pageopacity="0"
     inkscape:pageshadow="2"
     inkscape:window-width="1366"
     inkscape:window-height="687"
     id="namedview11"
     showgrid="false"
     inkscape:zoom="1.84375"
     inkscape:cx="64"
     inkscape:cy="64"
     inkscape:window-x="0"
     inkscape:window-y="0"
     inkscape:window-maximized="1"
     inkscape:current-layer="Layer_1" />
  <defs
     id="defs4">
    <style
       id="style2">.cls-1{fill:#efcc00;}</style>
  </defs>
  <title
     id="title6">smiley_Artboard 4</title>
  <rect
     style="opacity:1;fill:#ffc107;fill-opacity:1;stroke:none;stroke-width:3.09359097;stroke-miterlimit:4;stroke-dasharray:none;stroke-opacity:1"
     id="rect4135"
     width="70.710678"
     height="70.710678"
     x="28.644661"
     y="28.644695"
     rx="0" />
  <rect
     rx="0"
     y="55.154327"
     x="-35.355339"
     height="70.710678"
     width="70.710678"
     id="rect4137"
     style="opacity:1;fill:#ffb300;fill-opacity:1;stroke:none;stroke-width:3.09359097;stroke-miterlimit:4;stroke-dasharray:none;stroke-opacity:1"
     transform="rotate(-45)" />
  <circle
     style="opacity:1;fill:#fdd835;fill-opacity:1;stroke:none;stroke-width:3.09359097;stroke-miterlimit:4;stroke-dasharray:none;stroke-opacity:1"
     id="path4139"
     cx="63.999977"
     cy="64.000008"
     r="35.355339" />
  <rect
     style="opacity:1;fill:#ffffff;fill-opacity:1;stroke:none;stroke-width:0.44194162;stroke-miterlimit:4;stroke-dasharray:none;stroke-opacity:1"
     id="rect5203"
     width="26.953115"
     height="4.5927191"
     x="39.483723"
     y="65.486687"
     ry="2.2963595" />
  <path
     style="opacity:1;fill:#000000;fill-opacity:0.15686275;stroke:none;stroke-width:3.09359097;stroke-miterlimit:4;stroke-dasharray:none;stroke-opacity:1"
     d="m 91.604875,86.208388 c 0.01526,-0.0478 0.33033,-0.48042 0.693047,-0.96216 3.569916,-4.74164 5.927699,-10.43977 6.738042,-16.28393 0.258328,-1.86108 0.31529,-2.76342 0.314055,-4.97182 -5.41e-4,-2.19566 -0.05718,-3.08464 -0.313655,-4.95387 -0.588096,-4.27589 -2.104382,-8.74254 -4.237335,-12.48206 -0.603273,-1.05769 -1.764758,-2.8327 -2.429178,-3.7124 -0.52697,-0.6977 -0.637044,-0.87965 -0.532205,-0.87965 0.02979,0 5.0129,4.95372 11.067344,11.00826 l 11.00811,11.00824 -11.111,11.15786 c -6.111056,6.13683 -11.137985,11.15787 -11.170942,11.15787 -0.03015,0 -0.0449,-0.0349 -0.02216,-0.0867 z"
     id="path4155"
     inkscape:connector-curvature="0" />
  <rect
     ry="2.2963595"
     y="65.486687"
     x="69.004028"
     height="4.5927191"
     width="26.953115"
     id="rect5207"
     style="opacity:1;fill:#ffffff;fill-opacity:1;stroke:none;stroke-width:0.44194162;stroke-miterlimit:4;stroke-dasharray:none;stroke-opacity:1" />
  <rect
     style="opacity:1;fill:#ffffff;fill-opacity:1;stroke:none;stroke-width:0.44194162;stroke-miterlimit:4;stroke-dasharray:none;stroke-opacity:1"
     id="rect5209"
     width="26.124468"
     height="4.5927191"
     x="77.842865"
     y="72.322937"
     ry="2.2963595" />
  <rect
     ry="2.2963595"
     y="72.322937"
     x="34.649979"
     height="4.5927191"
     width="40.625675"
     id="rect5211"
     style="opacity:1;fill:#ffffff;fill-opacity:1;stroke:none;stroke-width:0.44194162;stroke-miterlimit:4;stroke-dasharray:none;stroke-opacity:1" />
  <rect
     style="opacity:1;fill:#ffffff;fill-opacity:1;stroke:none;stroke-width:0.44194162;stroke-miterlimit:4;stroke-dasharray:none;stroke-opacity:1"
     id="rect5213"
     width="13.971079"
     height="4.5927191"
     x="34.649979"
     y="79.228271"
     ry="2.2963595" />
  <rect
     ry="2.2963595"
     y="79.228271"
     x="51.153751"
     height="4.5927191"
     width="29.300934"
     id="rect5215"
     style="opacity:1;fill:#ffffff;fill-opacity:1;stroke:none;stroke-width:0.44194162;stroke-miterlimit:4;stroke-dasharray:none;stroke-opacity:1" />
  <rect
     style="opacity:1;fill:#ffffff;fill-opacity:1;stroke:none;stroke-width:0.44194162;stroke-miterlimit:4;stroke-dasharray:none;stroke-opacity:1"
     id="rect5217"
     width="18.045235"
     height="4.5927191"
     x="83.332603"
     y="79.228271"
     ry="2.2963595" />
  <rect
     style="opacity:1;fill:#ffffff;fill-opacity:1;stroke:none;stroke-width:0.44194162;stroke-miterlimit:4;stroke-dasharray:none;stroke-opacity:1"
     id="rect5219"
     width="32.891693"
     height="4.5927191"
     x="42.453007"
     y="86.547882"
     ry="2.2963595" />
  <path
     style="opacity:1;fill:#ffffff;fill-opacity:1;stroke:none;stroke-width:0.44194162;stroke-miterlimit:4;stroke-dasharray:none;stroke-opacity:1"
     d="m 36.544085,76.818408 c -1.133163,-0.23065 -1.987757,-1.38646 -1.816612,-2.45673 0.129109,-0.80759 0.651298,-1.50129 1.349609,-1.79298 0.301559,-0.12635 0.872278,-0.15145 3.367828,-0.15145 h 3.004759 l 1.276336,1.27372 c 1.276263,1.27361 1.276346,1.27368 1.46046,1.07024 0.183057,-0.20195 0.178153,-0.20951 -0.830642,-1.22169 -0.558118,-0.56006 -0.991107,-1.04193 -0.962194,-1.07081 0.02906,-0.0262 6.463091,-0.053 14.29818,-0.0538 l 14.245573,-0.002 1.195727,1.19283 c 1.189135,1.18627 1.196833,1.19184 1.399089,1.00881 l 0.203073,-0.1836 -0.931671,-0.93521 c -0.512428,-0.51438 -0.931667,-0.96739 -0.931667,-1.00671 0,-0.13583 0.63558,-0.0671 1.02539,0.11059 0.50231,0.22901 1.081287,0.87233 1.213648,1.34898 0.31144,1.12272 -0.139136,2.12736 -1.212373,2.70229 l -0.391699,0.20994 -18.310546,0.0113 c -10.070792,0.006 -18.464343,-0.0145 -18.652329,-0.0562 z"
     id="path5235"
     inkscape:connector-curvature="0" />
  <path
     style="opacity:1;fill:#000000;fill-opacity:0;stroke:none;stroke-width:0.44194162;stroke-miterlimit:4;stroke-dasharray:none;stroke-opacity:1"
     d="m 42.086077,71.289478 c -0.577393,-0.5933 -1.049806,-1.09865 -1.04981,-1.12305 -3e-6,-0.0207 5.328361,-0.0438 11.840811,-0.0438 h 11.840821 l 0.461605,-0.22759 c 0.863923,-0.42559 1.282537,-1.14607 1.272053,-2.18968 -0.0036,-0.36216 0.01925,-0.65917 0.05856,-0.65917 0.03233,0 1.250539,1.18623 2.699647,2.63607 l 2.634693,2.63606 -14.354124,0.0214 -14.354147,0.0214 -1.049809,-1.07853 z"
     id="path5239"
     inkscape:connector-curvature="0" />
  <path
     style="opacity:1;fill:#000000;fill-opacity:0.15686275;stroke:none;stroke-width:0.44194162;stroke-miterlimit:4;stroke-dasharray:none;stroke-opacity:1"
     d="M 52.606318,102.56919 C 46.342098,96.323038 41.216992,91.193728 41.217195,91.170708 c 6.94e-4,-0.079 0.128892,0.007 0.759985,0.514 7.140353,5.7267 16.397485,8.440932 25.607573,7.50811 5.724086,-0.57976 11.153969,-2.51861 15.917971,-5.68381 1.053323,-0.69986 1.966019,-1.36459 2.728165,-1.987 0.38936,-0.31823 0.494457,-0.3808 0.494457,-0.29654 0,0.0178 -5.114128,5.13673 -11.364744,11.368882 l -11.364768,11.33117 z"
     id="path5288"
     inkscape:connector-curvature="0" />
  <path
     style="opacity:1;fill:#000000;fill-opacity:0.15686275;stroke:none;stroke-width:0.44194162;stroke-miterlimit:4;stroke-dasharray:none;stroke-opacity:1"
     d="m 78.78815,99.276648 c 0,-0.0174 3.466193,-3.50285 7.702688,-7.73931 l 7.702699,-7.70254 h 2.575609 2.575646 v 7.73924 7.73922 H 89.06644 c -5.653068,0 -10.27829,-0.0134 -10.27829,-0.0331 z"
     id="path5292"
     inkscape:connector-curvature="0" />
  <rect
     ry="2.2963595"
     y="86.547882"
     x="77.911934"
     height="4.5927191"
     width="28.127028"
     id="rect5221"
     style="opacity:1;fill:#ffffff;fill-opacity:1;stroke:none;stroke-width:0.44194162;stroke-miterlimit:4;stroke-dasharray:none;stroke-opacity:1" />
  <path
     style="opacity:1;fill:#000000;fill-opacity:0.15686275;stroke:none;stroke-width:0.44194162;stroke-miterlimit:4;stroke-dasharray:none;stroke-opacity:1"
     d="m 61.231344,99.190158 c -4.421106,-0.37223 -9.038518,-1.64975 -12.759174,-3.53008 -1.033574,-0.52233 -1.4125,-0.83331 -3.169808,-2.60143 -1.097751,-1.10454 -1.962364,-2.04175 -1.921364,-2.08275 0.04094,-0.0368 0.256003,-0.009 0.477793,0.0664 0.266393,0.0926 5.440171,0.12857 15.248646,0.10375 l 14.845435,-0.0327 0.451971,-0.32201 c 1.399164,-0.99795 1.265001,-3.23477 -0.23962,-3.99346 l -0.616191,-0.31147 H 58.899245 44.2494 l -0.616217,0.31061 c -1.053173,0.53094 -1.549184,2.00071 -1.020358,3.02336 0.119555,0.23097 0.179315,0.45829 0.132924,0.50473 -0.08809,0.0884 -6.426955,-6.1785 -6.426955,-6.35372 0,-0.0551 2.450372,-0.11806 5.445272,-0.13939 5.25237,-0.0338 5.458771,-0.0493 5.826475,-0.32346 1.43198,-1.06963 1.432012,-2.91821 6.6e-5,-3.98803 -0.363698,-0.27162 -0.584754,-0.28699 -4.825201,-0.3239 l -4.444084,-0.0427 -1.001271,-0.99299 c -0.5507,-0.5463 -1.001275,-1.04066 -1.001275,-1.09872 0,-0.0584 8.447585,-0.12149 18.772412,-0.14128 18.716713,-0.0323 18.773556,-0.0331 19.153775,-0.3206 1.81811,-1.35748 1.185193,-4.07755 -1.001366,-4.30352 -0.610251,-0.0628 -0.763545,-0.15952 -1.673055,-1.05169 -0.550718,-0.54022 -1.001293,-1.01489 -1.001293,-1.05476 0,-0.0356 5.360278,-0.0722 11.911708,-0.0722 h 11.911715 l 0.522193,-0.32437 c 0.649072,-0.40324 1.066029,-1.19272 1.066029,-2.01766 0,-0.34457 0.04817,-0.62698 0.106696,-0.62698 0.05874,0 0.679936,0.57602 1.381066,1.28007 0.861804,0.86543 1.274744,1.38228 1.274744,1.59549 0,0.17314 -0.09852,0.7472 -0.218549,1.2749 l -0.218549,0.95949 h -9.315533 c -10.259204,0 -9.851786,-0.0301 -10.64606,0.87131 -0.970004,1.10475 -0.639576,2.8908 0.657231,3.55239 0.513398,0.26164 0.851012,0.27163 9.170174,0.27163 4.750471,0 8.637193,0.0236 8.637193,0.0611 0,0.0305 -0.213573,0.53095 -0.475519,1.10485 l -0.475446,1.04344 h -5.364714 c -5.2888,0 -5.373495,0.004 -5.980975,0.3106 -1.504559,0.7587 -1.638737,2.99552 -0.239619,3.99349 0.446289,0.31856 0.50478,0.32255 4.629716,0.3623 2.297747,0.0189 4.177723,0.0731 4.177723,0.11348 0,0.0597 -1.049061,1.47257 -1.741559,2.34565 -0.127221,0.1601 -1.147353,0.19334 -5.938573,0.1957 -5.731787,0.002 -5.790256,0.004 -6.32471,0.3106 -0.817168,0.46728 -1.096472,0.93341 -1.158016,1.93274 -0.04465,0.72961 -0.0036,0.93377 0.269808,1.33233 0.71593,1.04377 0.703219,1.04071 4.625386,1.11756 l 3.523493,0.0692 -0.321938,0.29205 c -0.568438,0.51584 -2.356574,1.77498 -3.65156,2.57134 -4.157562,2.55673 -8.697799,4.16551 -13.734137,4.86647 -1.851099,0.25793 -5.58488,0.36446 -7.397134,0.21183 z M 79.5148,83.467738 c 1.399164,-0.99796 1.264998,-3.23476 -0.239619,-3.9935 l -0.616213,-0.3106 H 65.80457 52.950086 l -0.616213,0.3106 c -1.103793,0.55665 -1.546387,1.99546 -0.964613,3.13582 0.254332,0.49873 0.759712,0.96522 1.246086,1.15054 0.113743,0.0383 6.111247,0.0681 13.327325,0.0538 l 13.120129,-0.0211 0.451978,-0.32205 z"
     id="path5302"
     inkscape:connector-curvature="0" />
  <path
     style="opacity:1;fill:#000000;fill-opacity:0.15686275;stroke:none;stroke-width:0.44194162;stroke-miterlimit:4;stroke-dasharray:none;stroke-opacity:1"
     d="m 42.15033,71.253678 c -0.548796,-0.55251 -0.997824,-1.03413 -0.997835,-1.07035 -7e-6,-0.0327 5.194351,-0.0494 11.54303,-0.0269 7.531627,0.0203 11.724863,-0.01 12.066324,-0.10361 1.073753,-0.28928 1.68973,-1.09615 1.706917,-2.23628 0.0047,-0.36655 0.04566,-0.66583 0.08889,-0.66583 0.03836,0 1.227101,1.14974 2.630773,2.55498 l 2.552153,2.55468 H 57.444266 43.148165 l -0.997824,-1.00645 z"
     id="path5304"
     inkscape:connector-curvature="0" />
</svg>
