<?xml version="1.0" encoding="UTF-8" standalone="no"?>
<svg
   xmlns:dc="http://purl.org/dc/elements/1.1/"
   xmlns:cc="http://creativecommons.org/ns#"
   xmlns:rdf="http://www.w3.org/1999/02/22-rdf-syntax-ns#"
   xmlns:svg="http://www.w3.org/2000/svg"
   xmlns="http://www.w3.org/2000/svg"
   xmlns:sodipodi="http://sodipodi.sourceforge.net/DTD/sodipodi-0.dtd"
   xmlns:inkscape="http://www.inkscape.org/namespaces/inkscape"
   id="Layer_1"
   data-name="Layer 1"
   viewBox="0 0 64 64"
   version="1.1"
   sodipodi:docname="01d.svg"
   inkscape:version="0.92.3 (2405546, 2018-03-11)">
  <metadata
     id="metadata29">
    <rdf:RDF>
      <cc:Work
         rdf:about="">
        <dc:format>image/svg+xml</dc:format>
        <dc:type
           rdf:resource="http://purl.org/dc/dcmitype/StillImage" />
      </cc:Work>
    </rdf:RDF>
  </metadata>
  <sodipodi:namedview
     pagecolor="#ffffff"
     bordercolor="#666666"
     borderopacity="1"
     objecttolerance="10"
     gridtolerance="10"
     guidetolerance="10"
     inkscape:pageopacity="0"
     inkscape:pageshadow="2"
     inkscape:window-width="1366"
     inkscape:window-height="687"
     id="namedview27"
     showgrid="false"
     inkscape:zoom="3.6875"
     inkscape:cx="57.923092"
     inkscape:cy="32"
     inkscape:window-x="0"
     inkscape:window-y="0"
     inkscape:window-maximized="1"
     inkscape:current-layer="Layer_1" />
  <defs
     id="defs4">
    <style
       id="style2">.cls-1{fill:#efcc00;}.cls-2{fill:none;stroke:#efcc00;stroke-linecap:round;stroke-miterlimit:10;stroke-width:3px;}</style>
    <style
       type="text/css"
       id="current-color-scheme">
   .ColorScheme-Text { color:#ffffff; } .ColorScheme-Highlight { color:#4285f4; } .ColorScheme-NeutralText { color:#ff9800; } .ColorScheme-PositiveText { color:#4caf50; } .ColorScheme-NegativeText { color:#f44336; }
  </style>
  </defs>
  <title
     id="title6">smiley_Artboard 3</title>
  <path
     id="path34"
     d="M 28.499997,4.0000108 V 11.300792 A 20.999997,21.000005 0 0 1 32,11.000002 a 20.999997,21.000005 0 0 1 3.499991,0.31444 V 4 Z m -13.822265,5.7285182 -4.949216,4.949218 5.167966,5.167972 a 20.999997,21.000005 0 0 1 4.956056,-4.942386 z m 34.644532,0 -5.167975,5.167968 a 20.999997,21.000005 0 0 1 4.942383,4.956058 l 5.174803,-5.174808 z M 32,14.500013 A 17.499998,17.500005 0 0 0 14.499999,32.000018 17.499998,17.500005 0 0 0 32,49.500022 17.499998,17.500005 0 0 0 49.49999,32.000018 17.499998,17.500005 0 0 0 32,14.500013 Z M 4,28.500017 v 7.000002 h 7.300779 a 20.999997,21.000005 0 0 1 -0.300791,-3.500001 20.999997,21.000005 0 0 1 0.31444,-3.500001 z m 48.699211,0 A 20.999997,21.000005 0 0 1 53,32.000018 20.999997,21.000005 0 0 1 52.685555,35.500019 H 60 v -7.000002 z m -37.795893,15.647464 -5.174802,5.174808 4.949216,4.949218 5.16797,-5.167968 a 20.999997,21.000005 0 0 1 -4.942384,-4.956058 z m 34.200192,0.007 a 20.999997,21.000005 0 0 1 -4.956058,4.942387 l 5.174812,5.174804 4.949211,-4.949219 z M 28.499997,52.685544 V 60 h 6.999994 V 52.69924 A 20.999997,21.000005 0 0 1 32,53.00003 20.999997,21.000005 0 0 1 28.499997,52.68559 Z"
     class="ColorScheme-Text"
     style="color:#ffffff;fill:#dfdfdf;fill-opacity:1;stroke-width:3.49999952"
     inkscape:connector-curvature="0" />
</svg>
