<?xml version="1.0" encoding="UTF-8" standalone="no"?>
<svg
   xmlns:dc="http://purl.org/dc/elements/1.1/"
   xmlns:cc="http://creativecommons.org/ns#"
   xmlns:rdf="http://www.w3.org/1999/02/22-rdf-syntax-ns#"
   xmlns:svg="http://www.w3.org/2000/svg"
   xmlns="http://www.w3.org/2000/svg"
   xmlns:sodipodi="http://sodipodi.sourceforge.net/DTD/sodipodi-0.dtd"
   xmlns:inkscape="http://www.inkscape.org/namespaces/inkscape"
   id="Layer_1"
   data-name="Layer 1"
   viewBox="0 0 64 64"
   version="1.1"
   sodipodi:docname="04n.svg"
   inkscape:version="0.92.3 (2405546, 2018-03-11)">
  <metadata
     id="metadata29">
    <rdf:RDF>
      <cc:Work
         rdf:about="">
        <dc:format>image/svg+xml</dc:format>
        <dc:type
           rdf:resource="http://purl.org/dc/dcmitype/StillImage" />
      </cc:Work>
    </rdf:RDF>
  </metadata>
  <sodipodi:namedview
     pagecolor="#ffffff"
     bordercolor="#666666"
     borderopacity="1"
     objecttolerance="10"
     gridtolerance="10"
     guidetolerance="10"
     inkscape:pageopacity="0"
     inkscape:pageshadow="2"
     inkscape:window-width="1366"
     inkscape:window-height="687"
     id="namedview27"
     showgrid="false"
     inkscape:zoom="3.6875"
     inkscape:cx="8.1603801"
     inkscape:cy="32"
     inkscape:window-x="0"
     inkscape:window-y="0"
     inkscape:window-maximized="1"
     inkscape:current-layer="Layer_1" />
  <defs
     id="defs4">
    <style
       id="style2">.cls-1{fill:#efcc00;}.cls-2{fill:none;stroke:#efcc00;stroke-linecap:round;stroke-miterlimit:10;stroke-width:3px;}</style>
    <style
       type="text/css"
       id="current-color-scheme">
   .ColorScheme-Text { color:#ffffff; } .ColorScheme-Highlight { color:#4285f4; } .ColorScheme-NeutralText { color:#ff9800; } .ColorScheme-PositiveText { color:#4caf50; } .ColorScheme-NegativeText { color:#f44336; }
  </style>
  </defs>
  <title
     id="title6">smiley_Artboard 3</title>
  <path
     id="path34"
     d="m 28.874997,7.00001 v 6.518554 A 18.749997,18.750004 0 0 1 32,13.250002 a 18.749997,18.750004 0 0 1 3.124992,0.28075 V 7 Z m -12.341308,5.114748 -4.418943,4.418945 4.614256,4.61426 a 18.749997,18.750004 0 0 1 4.42505,-4.412844 z m 30.932618,0 -4.614263,4.614257 a 18.749997,18.750004 0 0 1 4.412842,4.425052 l 4.62036,-4.620364 z M 32,16.375012 A 15.624998,15.625004 0 0 0 16.374999,32.000016 15.624998,15.625004 0 0 0 32,47.62502 15.624998,15.625004 0 0 0 47.624991,32.000016 15.624998,15.625004 0 0 0 32,16.375012 Z M 7,28.875015 v 6.250002 h 6.518553 a 18.749997,18.750004 0 0 1 -0.268564,-3.125001 18.749997,18.750004 0 0 1 0.28075,-3.125001 z m 43.481438,0 A 18.749997,18.750004 0 0 1 50.75,32.000016 18.749997,18.750004 0 0 1 50.469246,35.125017 H 57 v -6.250002 z m -33.746333,13.97095 -4.620359,4.620364 4.418943,4.418945 4.614259,-4.614257 a 18.749997,18.750004 0 0 1 -4.412843,-4.425052 z m 30.535886,0.0063 a 18.749997,18.750004 0 0 1 -4.425052,4.412846 l 4.620368,4.62036 4.418939,-4.418945 z M 28.874997,50.469236 V 57 h 6.249995 V 50.481464 A 18.749997,18.750004 0 0 1 32,50.750027 18.749997,18.750004 0 0 1 28.874997,50.469277 Z"
     class="ColorScheme-Text"
     style="color:#ffffff;fill:#dfdfdf;fill-opacity:1;stroke-width:3.12499952"
     inkscape:connector-curvature="0" />
</svg>
